<svg xmlns="http://www.w3.org/2000/svg" xmlns:xlink="http://www.w3.org/1999/xlink" x="0px" y="0px" viewBox="0 0 100 100" style="enable-background:new 0 0 100 100;" xml:space="preserve"><g>	<g>		<path d="M63.5,6.7c0.1,1.2,0.3,2.1,0.3,3.1c0,7.2,0.1,14.4,0,21.6c0,2,0.6,3.2,2.5,4.4c11.3,6.8,17.2,16.8,16.8,30.1   C82.6,80.2,75.3,90.1,62.4,96c-5,2.3-10.6,3.5-16.1,2.6c-13.6-2.2-23.6-9.3-28.2-22.6C17,72.8,16,69.5,16,66.2   C15.9,53,21.5,42.6,33,35.8c1.7-1,2.3-2.2,2.3-4c0-7.4,0-14.9,0-22.3c0-2.7,0.2-2.7,2.7-1.9c3.5,1.1,7,2.1,10.5,2.7   c4.7,0.7,9.1-0.8,13.3-2.9C62.3,7.1,62.7,7,63.5,6.7z M57.7,27.5c0-3,0-6.1,0-9.1c0-1.7-0.3-2.4-2.3-2.2c-3.6,0.3-7.3,0.3-11,0.1   c-2-0.1-2.7,0.5-2.7,2.5c0.1,5.3-0.2,10.6,0.1,15.8c0.2,3.1-1,4.5-3.7,5.7c-13.8,6.1-19.6,23.2-13,36.6c5.9,12,20.3,18.7,34,13.7   c14.7-5.4,21.6-22,15.8-36.1c-2.9-7.2-8.3-12-15.3-15c-1.5-0.7-2-1.5-2-3C57.7,33.4,57.7,30.5,57.7,27.5z"></path>		<path d="M49.7,1.7c3,0.5,5.9,1,8.7,1.6c0.7,0.2,1.5,0.6,2,1.2c0.3,0.3,0.6,1,0.5,1.4c-0.1,0.4-0.8,0.9-1.2,0.9   c-0.9,0.1-1.9,0-2.8-0.3c-4.8-1.4-9.6-1.4-14.4,0c-0.2,0-0.3,0.1-0.5,0.1c-1.2,0-3,1.1-3.5-0.8c-0.5-1.9,1.4-2.3,2.7-2.6   C44,2.6,46.8,2.2,49.7,1.7z"></path>		<path d="M49.7,88.6C37,88.7,26.5,77.6,26.4,66.2c0-3.3,0.2-3.2,3.3-3c8.6,0.7,17.2,1.2,25.8,1.3c5.1,0,10.2-0.9,15.2-1.5   c1.8-0.2,2.4,0.3,2.5,2.2c0.2,9-6.8,19-15.4,21.6C55.1,87.7,52.4,88,49.7,88.6z M58.7,78.7c2.5,0,4.1-1.8,4-4.3   c-0.1-2.4-2-4.3-4.3-4.2c-2.1,0.1-4.2,2.3-4.2,4.4C54.3,76.9,56.3,78.7,58.7,78.7z M48.2,73.7c0.4-0.7,1.6-1.6,1.7-2.7   c0.2-1.6-1.1-2.7-2.7-2.6c-1.5,0.1-2.6,1-2.5,2.6C44.7,72.7,45.7,73.6,48.2,73.7z"></path>		<path d="M50.6,61.8c-4.9,0-8.7-3.8-8.7-8.8c0-4.9,3.9-8.9,8.7-8.9c4.7-0.1,8.9,4.1,8.9,8.8C59.6,58,55.7,61.8,50.6,61.8z    M50.6,48.5c-2.5,0-4.6,2.2-4.6,4.6c0.1,2.3,2.4,4.6,4.7,4.5c2.5-0.1,4.5-2.1,4.5-4.6C55.2,50.4,53.2,48.5,50.6,48.5z"></path>		<path d="M50.8,29.6c2.3,0,4.4,2.2,4.4,4.5c0,2.2-2.2,4.4-4.5,4.3c-2.5,0-4.4-2-4.3-4.5C46.4,31.5,48.4,29.5,50.8,29.6z"></path>	</g></g></svg>