<svg xmlns="http://www.w3.org/2000/svg" xmlns:xlink="http://www.w3.org/1999/xlink" x="0px" y="0px" viewBox="0 0 100 100" style="enable-background:new 0 0 100 100;" xml:space="preserve"><g>	<path d="M14.2,59.3c-2.3-1.9-2.5-2.9-0.7-5.2c0.9-1.2,0.8-2.4-0.2-3.5c-0.8-0.9-1.7-1.6-2.4-2.5c-1.4-1.7-1.1-3.5,0.8-4.7  c2.1-1.4,4.3-2.7,6.3-4.2c2.2-1.7,3.2-3.9,2.5-6.9c-0.3-1.3,0-2.7,0.4-4c1.8-7.1,4.5-13.8,10.1-18.8c3.9-3.4,8.5-5.6,13.6-6.8  c2.1-0.5,4.3-1,6.4-1.1c6.2-0.4,11.9,1.8,17.6,4c4.8,1.9,9.2,4.5,12.8,8.3c6.4,6.8,8.8,15,8.7,24.2c-0.1,9.2-3.4,17.4-7.8,25.3  c-2.3,4.2-4.7,8.3-6.7,12.7c-1.9,4.1-1.9,8.6-1.3,13c0.5,3.7,0.4,3.5-2.9,5c-10,4.6-20.5,4.8-31.2,4.4c-1.6-0.1-1.9-1.1-2.1-2.3  c-0.9-3.6-1.9-7.1-4.1-10.2c-2-2.9-4.7-4.3-8.1-4.7c-2.9-0.3-5.8-0.6-8.6-1.3c-4-0.9-5.4-4.5-3.7-8.1c0.4-0.9,0.8-1.8,1.1-2.7  c0.8-2.1,0.3-3.6-1.5-5C11,62.4,11.2,61.4,14.2,59.3z M54,10.2c-0.3,0.4-0.7,0.8-1,1.1c-0.7,0.6-1.7,1.6-2.1,1.5  c-0.8-0.4-1.6-1.4-2-2.3c-0.5-1.2-1.1-1.8-2.3-1.5c-1.3,0.3-3.1,0-3.4,2.2c-0.1,0.8-0.6,1.9-1.1,2.1c-0.7,0.2-1.9-0.2-2.5-0.7  c-1.2-1-2.1-1-3.3-0.1c-1.2,0.9-2.1,1.8-1.2,3.5c0.9,1.8,0,3.1-2.1,3c-0.5,0-1-0.2-1.5-0.2c-1.7-0.1-1.7,1.4-2.1,2.3  c-0.3,0.6-0.2,1.9,0.3,2.4c2.5,2.3,2.5,3.2-0.7,4.6c-2,0.8-1,2.2-1.1,3.5c-0.1,1.3,0.8,1.5,1.8,1.8c0.9,0.2,2,0.8,2.4,1.6  c0.3,0.6-0.3,1.8-0.9,2.4c-1.3,1.2-0.7,2.2,0.2,3.1c0.8,0.9,1.3,2.5,3.2,1.3c0.6-0.4,1.9-0.4,2.4,0c0.5,0.4,0.6,1.6,0.6,2.4  c-0.1,1.1-0.5,2.3,1,2.8c1.4,0.4,3,2.1,4.3-0.3c0.3-0.6,1.4-1.3,1.8-1.2c0.8,0.3,1.6,1.1,1.9,1.8c0.4,1.4,1.1,2.2,2.6,1.9  c1.4-0.3,3.1-0.3,3.2-2.4c0-0.7,0.5-1.8,1-1.9c0.7-0.2,1.8,0.1,2.4,0.6c1.1,1,2,1.4,3.3,0.3c1.4-1.1,2.2-2,1.2-3.9  c-0.9-1.6,0.1-2.9,2-2.8c0.5,0,0.9,0.1,1.3,0.2c1.9,0.6,2.1-1.1,2.4-2.1c0.3-0.8,0.2-2.2-0.3-2.7c-2.2-2-2.3-3.2,0.5-4.2  c2.3-0.9,1.5-2.5,1.4-4c-0.1-1.6-1.3-1.3-2.3-1.4c-1.8-0.2-2.6-2-1.6-3.4c1.7-2.4,1.7-3-0.6-5c-0.4-0.3-1.1-0.3-1.6-0.2  c-1,0.1-2.2,0.6-2.8,0.2c-0.6-0.4-0.7-1.8-0.6-2.7c0.2-1.4-0.2-2.3-1.6-2.7C55.7,10.7,54.9,10.4,54,10.2z M75.4,42.8  c0.2-0.2,0.5-0.4,0.7-0.7c-0.9-0.6-1.7-1.4-2.7-1.6c-0.6-0.1-1.6,0.5-2.1,1.1c-1.4,1.9-2.7,2.2-4.2,0.7c-1.3-1.3-2.2-0.4-3.1,0.3  c-1,0.8-1.3,1.5-0.5,2.8c1.2,1.8,0.5,3.5-1.6,3.9c-1.7,0.3-1.3,1.5-1.3,2.5c0,1.2,0.3,2.1,1.8,2.2c2.9,0.2,3.2,0.6,2.9,3.5  c-0.2,1.5,0.9,2.1,1.9,2.2c0.8,0.1,2-0.1,2.4-0.7c1.4-1.9,2.8-2.4,4.5-0.8c1.3,1.1,2,0.3,3-0.4c1.1-0.8,1.2-1.6,0.5-2.6  c-1.1-1.8-0.7-3.2,1.1-3.9c1.8-0.6,1.8-1.7,1.6-3.2c-0.2-1.5-1.2-1.6-2.4-1.5c-0.5,0-1.3-0.3-1.5-0.6C76.1,45,75.8,43.9,75.4,42.8z  "></path></g></svg>