<svg xmlns="http://www.w3.org/2000/svg" xmlns:xlink="http://www.w3.org/1999/xlink" x="0px" y="0px" viewBox="0 0 100 100" style="enable-background:new 0 0 100 100;" xml:space="preserve"><g>	<g>		<path d="M51.6,70.8c-0.2,1.4,0.3,2.6,2,3.6c2.8,1.6,4.1,5.2,3.2,8.3c-0.9,3-3.9,5.3-7.1,5.3c-3.4,0-6.5-2.2-7.4-5.5   c-0.8-2.9,0.5-6.4,3.2-8.1c1.8-1.2,2.8-4.5,1.8-6.4c-0.3-0.5-1.1-0.8-1.7-1c-2.2-0.6-4.3-1.2-6.5-1.7c-0.4-0.1-0.8-0.2-1.2-0.1   c-1.7,0.7-3.1,4.7-2,6.3c2.4,3.5,0.3,8.8-3.3,10.4c-2.7,1.2-5.8,0.9-8.1-1.1c-2.2-2-3.2-5.1-2.3-7.7c1.1-3.1,3.1-5,6.4-5.3   c2.7-0.3,4.3-1.4,4.9-4.1c0.1-0.6-0.2-1.5-0.6-2c-1.6-1.7-3.2-3.3-4.9-4.9c-0.3-0.3-0.8-0.6-1.3-0.7C25,56,22.1,58.7,22,60.5   c-0.1,3.5-2.3,6.4-5.5,7.2c-3.1,0.8-6.7-0.6-8.3-3.3c-1.8-3-1.5-6.4,0.9-9c2.3-2.5,5.7-3.1,8.9-1.5c1.9,0.9,4.9,0.2,6.2-1.5   c0.3-0.4,0.3-1.1,0.2-1.5c-0.5-2.2-1.3-4.3-1.7-6.5c-0.3-1.5-1.1-1.9-2.5-1.9c-2,0-3.7,0.1-4.9,2.3c-1.8,3-5.8,4-8.8,2.6   c-3.6-1.6-5.5-5.2-4.7-8.7c0.5-2.3,3.6-5.1,5.9-5.5c3.2-0.5,5.8,0.5,7.7,3.2c1.2,1.7,4.3,2.8,6,1.8c0.7-0.4,1-1.6,1.2-2.5   c1.4-8.3,5.8-14.5,13-18.9c14.9-9.1,35-1.5,40.3,15.1c0.5,1.7,0.7,3.5,1.2,5.1c0.2,0.6,1,1.4,1.6,1.4c2.2,0.3,4.1,0.2,5.5-2.3   c1.5-2.7,5.4-3.8,8-2.8c3.6,1.3,5.4,4.1,5.3,7.8C97.2,44.2,95,47,92,47.7c-3.2,0.8-6.7-0.5-8.5-3.3c-1-1.6-4.6-2.6-6-1.6   C77.2,43,77,43.5,76.9,44c-0.7,2.3-1.3,4.6-2,6.9c-0.4,1.1-0.1,1.8,0.9,2.4c1.9,1.2,3.5,2.1,5.9,0.6c2.8-1.7,6-0.8,8.4,1.8   c2.2,2.4,2.5,5.9,0.8,8.8c-1.6,2.8-5,4.2-8.4,3.4c-2.7-0.6-5.2-3.6-5.4-6.4c-0.2-2.6-1.5-4.3-4.1-5c-0.5-0.1-1.4,0.2-1.8,0.6   c-1.7,1.5-3.5,3.1-5,4.8c-0.5,0.6-0.7,1.8-0.5,2.5c0.9,2.2,2.1,3.7,5.1,3.6c3.2-0.1,6.1,3.3,6.3,6.6c0.2,3.7-1.9,6.9-5.4,7.9   c-3.2,1-7.1-0.7-8.6-3.7c-1.4-2.6-1.3-5.1,0.2-7.4c1.6-2.4-0.8-3.6-1.4-5.2c-0.6-1.5-1.9-0.7-2.9-0.4c-1.4,0.4-2.8,0.9-4.3,1.1   C51.6,67.3,51.6,67.3,51.6,70.8z M49.6,63.6c13.2,0,23.7-10.5,23.6-23.6c-0.1-13-10.7-23.6-23.6-23.5C36.2,16.6,25.8,27.6,26,40.2   C26.2,53.2,36.5,63.6,49.6,63.6z M9.3,37.2c-2.1,0-3.3,1.2-3.3,3.2c0,2,1.3,3.2,3.4,3.2c2,0,3.2-1.2,3.2-3.1   C12.6,38.4,11.3,37.2,9.3,37.2z M69.8,78.5c2.1,0,3.2-1.3,3.2-3.4c-0.1-2-1.2-3.1-3.2-3.1c-2,0-3.3,1.2-3.3,3.3   C66.5,77.3,67.7,78.5,69.8,78.5z M52.8,80.6c0-2-1.3-3.3-3.3-3.3c-2,0-3.3,1.3-3.2,3.4c0,2,1.2,3.1,3.2,3.1   C51.5,83.9,52.8,82.6,52.8,80.6z M32.6,75.3c0-2.1-1.2-3.3-3.2-3.3c-2,0-3.2,1.2-3.3,3.1c-0.1,2,1.2,3.4,3.2,3.4   C31.3,78.5,32.6,77.3,32.6,75.3z M87.8,60.5c0-2.1-1.3-3.2-3.4-3.2c-2,0.1-3.2,1.4-3.1,3.4c0.1,1.9,1.3,3.1,3.3,3.1   C86.6,63.8,87.8,62.6,87.8,60.5z M93.3,40.4c0-1.9-1.4-3.3-3.4-3.2c-1.9,0-3.3,1.5-3.2,3.4c0,1.8,1.4,3.1,3.3,3.1   C92,43.7,93.3,42.4,93.3,40.4z M14.6,57.2c-2.1,0-3.3,1.2-3.3,3.2c0,2,1.2,3.2,3.3,3.2c2,0,3.2-1.2,3.2-3.1   C17.9,58.6,16.6,57.3,14.6,57.2z"></path>		<path d="M47.3,58.6c0-4.6,0-9.2,0-13.8c0-1.4-0.3-3,1.7-3.3c2-0.4,2.8,0.7,2.8,3.1c0,4.2,0.1,8.3,0.2,12.5c0,0.4,0.1,0.8,0.2,1.2   c0.2,0,0.5,0.1,0.5,0.1c1.4-2.8,2.8-5.6,4.1-8.4c0.1-0.2,0.1-0.5-0.1-0.6c-1.5-1.9-1.2-3.3,1.1-4.2c0.2-0.1,0.2-1,0-1.4   c-0.2-0.5-0.6-0.9-0.9-1.4c4.9-1.2,8,1,8.3,5.7c0.1,1.2-0.1,2.4,0.2,3.6c0.8,3.2-0.7,5-3.4,6.3c-9.4,4.6-18.4,4.4-27.2-1.5   c-0.7-0.4-1.3-1.6-1.3-2.4c0.1-2.6,0.3-5.2,0.7-7.8c0.4-2.5,1.6-3.6,4.2-4c1.1-0.2,2.2-0.3,3.5-0.5c-0.2,0.6-0.2,1.1-0.4,1.2   c-1.3,1.1-1.2,2,0.5,2.6c1.3,0.5,1.4,1.5,0.7,2.6c-0.8,1.2-0.6,2.2,0,3.3c0.9,1.7,1.6,3.6,2.5,5.4c0.3,0.7,0.8,1.2,1.3,1.8   C46.8,58.7,47.1,58.6,47.3,58.6z"></path>		<path d="M57.2,30.3c0.1,4-1.4,7.1-4.9,8.9c-3.7,1.9-8.6-0.7-9.9-5.4c-0.9-3.1-0.7-6.3,1.1-9.2c1.6-2.7,4.5-4,7.3-3.5   c3,0.5,5.6,3.3,6.2,6.5C57,28.4,57.1,29.3,57.2,30.3z"></path>	</g></g></svg>