<svg xmlns="http://www.w3.org/2000/svg" xmlns:xlink="http://www.w3.org/1999/xlink" x="0px" y="0px" viewBox="0 0 100 100" style="enable-background:new 0 0 100 100; color: #838C48;" xml:space="preserve"><g>	<g>		<path d="M66.5,12.4c-3.4,3.1-6.4,6-11.5,5.9c-14.7-0.4-29.4-0.1-44-0.1c-3.3,0-3.3,0-3.3,3.4c0,14,0,27.9,0,41.9   c0,3.1,0.1,3.2,3.2,3.2c26,0,52,0,78.1,0.1c2.5,0,3.1-0.8,3.1-3.1c-0.1-14.2-0.1-28.4,0-42.6c0-2.2-0.7-3-2.9-2.8   c-2.2,0.1-4.3,0-6.5-0.3c1.9-3.2,3.4-5.9,7.8-5.8c8.4,0.3,7.6,0.3,7.6,7.8c0,19.3,0,38.6,0,57.8c0,3.4-0.8,4.2-4.1,4.3   c-29.4,0-58.9,0-88.3,0c-3.1,0-4.2-1.1-4.2-4.1c0-20.5,0-41.1,0-61.6c0-2.8,1-3.9,3.8-3.9c19.8,0,39.5,0,59.3,0   C65.1,12.2,65.8,12.3,66.5,12.4z"></path>		<path d="M43.6,43.1c0.6,0.7,1.3,1.4,1.8,2.2c0.5,0.8,1.4,2.1,1.1,2.6c-0.4,0.8-1.7,1.2-2.6,1.6c-0.4,0.2-0.9,0-1.3,0   c-0.5,5.2-3.9,8-7.9,10.2c-2.2,1.2-4.7,2.3-7.4,0.6c-0.3-0.2-1.1,0.4-1.7,0.5c-0.9,0.1-1.8,0-2.3,0c1-2.3,2.4-4.3,2.8-6.5   C27.2,47,31.1,45,37,44c1.2-3.8,1.6-4.2,4.7-3.6c-0.5-3.2,1.5-5.3,3.7-7c5.8-4.5,11.7-8.9,17.8-13.1c6-4.2,12.1-8.1,18.1-12.1   c0.7-0.4,1.7-0.4,2.5-0.5c-0.2,0.9-0.2,1.9-0.8,2.5c-3.9,4.7-7.9,9.3-11.9,13.9c-4.5,5.2-9.1,10.4-13.7,15.4c-1.8,1.9-3.9,3.5-6,5   c-2.9,2.1-4,1.8-6.4-0.8c-0.3-0.3-0.7-0.6-1.1-0.9C43.8,42.9,43.7,43,43.6,43.1z"></path>		<path d="M49.6,88.4c-3.5,0-7-0.1-10.4,0c-2.2,0.1-2.1-1.2-2.2-2.8c-0.1-1.7,0.4-2.5,2.3-2.4c7,0.1,13.9,0.1,20.9,0   c2,0,2.3,0.9,2.4,2.6c0,1.8-0.5,2.6-2.4,2.5C56.6,88.3,53.1,88.4,49.6,88.4z"></path>		<path d="M29.3,90.6c0.9-0.4,1.7-1.1,2.6-1.2c11.9-0.1,23.7-0.1,35.6,0c1,0,1.9,0.8,2.8,1.2c-0.1,0.3-0.2,0.6-0.3,0.9   c-13.5,0-27,0-40.4,0C29.6,91.3,29.4,91,29.3,90.6z"></path>	</g></g></svg>